<svg id="Capa_1" data-name="Capa 1" xmlns="http://www.w3.org/2000/svg" viewBox="0 0 1200 588.66"><defs><style>.cls-1{fill:#043f61;}.cls-2,.cls-4{fill:#053e61;}.cls-3{fill:#adcbdc;}.cls-3,.cls-4,.cls-5{fill-rule:evenodd;}.cls-5{fill:#006aa5;}.cls-6{font-size:83.27px;fill:#666;font-family:Oxygen-Light, Oxygen;font-weight:300;}.cls-7{letter-spacing:-0.01em;}.cls-8{letter-spacing:-0.01em;}.cls-9{letter-spacing:0em;}</style></defs><title>Logo Urosur</title><path class="cls-1" d="M488.36,408.38,433.19,328.2h-4.65v80.18h-18V232.8H443.1q14.89,0,25.75,3.29a48,48,0,0,1,17.91,9.45,37.16,37.16,0,0,1,10.47,15,56.33,56.33,0,0,1,3.41,20.18,50.44,50.44,0,0,1-3.12,18.09A39.22,39.22,0,0,1,488.3,313a46.37,46.37,0,0,1-15.07,9.67,67.89,67.89,0,0,1-20.81,4.6l56.64,81.09Zm-6-126.92a39.14,39.14,0,0,0-2.45-14.37,24.2,24.2,0,0,0-7.78-10.41,36.68,36.68,0,0,0-13.67-6.38,81.7,81.7,0,0,0-20.13-2.16h-9.77v66H443a56.79,56.79,0,0,0,17-2.28,34.75,34.75,0,0,0,12.31-6.48,26.76,26.76,0,0,0,7.54-10.22,34.65,34.65,0,0,0,2.57-13.66"/><path class="cls-1" d="M511.33,409.56H487.74l-.36-.51-54.82-79.67h-2.83v80.18H409.39V231.61H443.1c10,0,18.8,1.13,26.1,3.35a49.43,49.43,0,0,1,18.34,9.69,38.47,38.47,0,0,1,10.79,15.52,57.61,57.61,0,0,1,3.49,20.6,51.65,51.65,0,0,1-3.2,18.52,40.47,40.47,0,0,1-9.49,14.57,47.62,47.62,0,0,1-15.45,9.92,67.41,67.41,0,0,1-19.12,4.51ZM489,407.19h17.81l-56.53-80.93,2.07-.15a67.11,67.11,0,0,0,20.45-4.51,45.23,45.23,0,0,0,14.69-9.42,38.24,38.24,0,0,0,8.94-13.74,49.42,49.42,0,0,0,3-17.67A55.12,55.12,0,0,0,496.12,261,36.14,36.14,0,0,0,486,246.43a47.09,47.09,0,0,0-17.48-9.2c-7.08-2.16-15.63-3.25-25.41-3.25H411.76V407.19h15.6V327h6.45l.35.51Zm-46-91.91h-15.6V247h10.95a82.77,82.77,0,0,1,20.43,2.2,38,38,0,0,1,14.11,6.59A25.47,25.47,0,0,1,481,266.66a40.27,40.27,0,0,1,2.53,14.81,35.89,35.89,0,0,1-2.66,14.11A28.14,28.14,0,0,1,473,306.25a36.11,36.11,0,0,1-12.73,6.7A58.48,58.48,0,0,1,443,315.28Zm-13.23-2.37H443a56.53,56.53,0,0,0,16.61-2.21,33.9,33.9,0,0,0,11.9-6.26,25.83,25.83,0,0,0,7.21-9.78,33.5,33.5,0,0,0,2.48-13.19,38.1,38.1,0,0,0-2.37-14,23.18,23.18,0,0,0-7.41-9.91,35.48,35.48,0,0,0-13.23-6.16,80.47,80.47,0,0,0-19.84-2.13h-8.58Z"/><path class="cls-2" d="M700.65,320.58a87.54,87.54,0,0,1-25.54,62.12,85.92,85.92,0,0,1-17.86,13.78,89.65,89.65,0,0,1-45.3,12,92,92,0,0,1-24.37-3.15,89,89,0,0,1-21.46-8.88,87.41,87.41,0,0,1-17.93-13.78,85.32,85.32,0,0,1-13.67-17.82,89.6,89.6,0,0,1-8.72-21,88.45,88.45,0,0,1,8.77-67.58,87.65,87.65,0,0,1,31.66-31.61,89.86,89.86,0,0,1,21.41-8.88,91,91,0,0,1,24.1-3.15,89.57,89.57,0,0,1,45.28,12A87.79,87.79,0,0,1,675,258.47a89.39,89.39,0,0,1,13.78,17.82,86.84,86.84,0,0,1,11.91,44.29m-17.42,0a69.57,69.57,0,0,0-5.64-27.85,72.88,72.88,0,0,0-38-38.44,67.6,67.6,0,0,0-27.77-5.75,72.3,72.3,0,0,0-28.32,5.52,69,69,0,0,0-22.63,15.22,70.39,70.39,0,0,0-15,22.9,74,74,0,0,0-5.41,28.4,70.65,70.65,0,0,0,2.54,19A72.72,72.72,0,0,0,575.8,382.7,71.18,71.18,0,0,0,592.91,390a70.12,70.12,0,0,0,19.1,2.59,71.89,71.89,0,0,0,28.15-5.46,68.8,68.8,0,0,0,22.58-15.07,69.6,69.6,0,0,0,15-22.77,74.39,74.39,0,0,0,5.47-28.74"/><path class="cls-1" d="M612,409.69a93.75,93.75,0,0,1-24.69-3.19,90.81,90.81,0,0,1-21.74-9,88.82,88.82,0,0,1-18.18-14,86.76,86.76,0,0,1-13.86-18.06,91.65,91.65,0,0,1-8.83-21.28,88.78,88.78,0,0,1,41-100.52,90.6,90.6,0,0,1,21.7-9,95.11,95.11,0,0,1,48.72,0,90.6,90.6,0,0,1,21.56,9,88.51,88.51,0,0,1,18.18,14,90.82,90.82,0,0,1,14,18.06,88,88,0,0,1,12.07,44.89A88.69,88.69,0,0,1,676,383.52a87.11,87.11,0,0,1-18.11,14A90.82,90.82,0,0,1,612,409.69Zm-.23-175.85a90.25,90.25,0,0,0-23.78,3.1,88.63,88.63,0,0,0-21.13,8.77,87.06,87.06,0,0,0-39.88,97.85,88.84,88.84,0,0,0,8.6,20.73A84.48,84.48,0,0,0,549,381.85a86.64,86.64,0,0,0,17.7,13.61,87.65,87.65,0,0,0,21.17,8.76A91.2,91.2,0,0,0,612,407.33a88.26,88.26,0,0,0,44.7-11.87,85,85,0,0,0,17.61-13.6,87.39,87.39,0,0,0,22.15-84.28,85.74,85.74,0,0,0-8.7-20.69,88.43,88.43,0,0,0-13.6-17.59,86.89,86.89,0,0,0-17.69-13.59,88.19,88.19,0,0,0-44.7-11.87Zm.28,160a71.64,71.64,0,0,1-36.81-10.09,73.83,73.83,0,0,1-33.33-43.84,71.93,71.93,0,0,1-2.58-19.29,75.54,75.54,0,0,1,5.5-28.85A72,72,0,0,1,560,268.45,70.52,70.52,0,0,1,583,253a73.62,73.62,0,0,1,28.78-5.6A69.32,69.32,0,0,1,640,253.2a74.17,74.17,0,0,1,38.64,39.06,71.28,71.28,0,0,1,5.73,28.32,76,76,0,0,1-5.56,29.19,71.21,71.21,0,0,1-15.27,23.16,70.35,70.35,0,0,1-23,15.32A73.43,73.43,0,0,1,612,393.8Zm-.22-144.07a71.23,71.23,0,0,0-27.86,5.42,68,68,0,0,0-22.24,15A69.41,69.41,0,0,0,547,292.63a73,73,0,0,0-5.33,27.95,69.72,69.72,0,0,0,2.5,18.66,71.49,71.49,0,0,0,18,31.27,70.79,70.79,0,0,0,14.23,11.16,68.94,68.94,0,0,0,35.6,9.76,71.09,71.09,0,0,0,27.7-5.36,67.84,67.84,0,0,0,22.19-14.81,68.7,68.7,0,0,0,14.76-22.39,73.45,73.45,0,0,0,5.39-28.29,68.89,68.89,0,0,0-5.54-27.38,71.8,71.8,0,0,0-37.43-37.83A66.87,66.87,0,0,0,611.79,249.73Z"/><path class="cls-2" d="M824.33,358.81a49,49,0,0,1-3.71,18.87,47.94,47.94,0,0,1-10.56,15.88,50.46,50.46,0,0,1-16.6,10.91,56.58,56.58,0,0,1-21.88,4,63,63,0,0,1-18-2.49,56.77,56.77,0,0,1-15.38-7A52.66,52.66,0,0,1,726.11,388a54.16,54.16,0,0,1-8.29-14.26l11.39-10A50.6,50.6,0,0,0,736.46,376a46.46,46.46,0,0,0,9.84,9.15,43.18,43.18,0,0,0,12,5.77,45.33,45.33,0,0,0,13.54,2,37.54,37.54,0,0,0,14.49-2.65A31.75,31.75,0,0,0,804,372.43a35.45,35.45,0,0,0,.87-22.95,27.07,27.07,0,0,0-4.81-8.86,41.85,41.85,0,0,0-8.56-7.87,78.61,78.61,0,0,0-12.78-7.13l-12.94-6.08a128.94,128.94,0,0,1-14.77-7.81,55.74,55.74,0,0,1-11.55-9.4,39.71,39.71,0,0,1-7.58-11.78,38.6,38.6,0,0,1-2.71-14.84,42.26,42.26,0,0,1,3.42-17A41.42,41.42,0,0,1,742.08,245a43.41,43.41,0,0,1,14.34-9.08,48.41,48.41,0,0,1,17.92-3.26,61,61,0,0,1,14.43,1.64A54.5,54.5,0,0,1,801.32,239a51.77,51.77,0,0,1,10.51,7.27,50.78,50.78,0,0,1,8.29,9.42l-10.39,11.39a58,58,0,0,0-6.86-7.57,43.8,43.8,0,0,0-8.13-6,41.09,41.09,0,0,0-9.29-3.88A39,39,0,0,0,775,248.25a34.16,34.16,0,0,0-11.4,1.83,26.75,26.75,0,0,0-8.94,5.14,23,23,0,0,0-5.87,8.08,26.34,26.34,0,0,0-2.1,10.73,27.6,27.6,0,0,0,1.66,10,23.23,23.23,0,0,0,5.26,8,44.49,44.49,0,0,0,9.2,7,132.65,132.65,0,0,0,13.45,6.86l12.4,5.64a92.41,92.41,0,0,1,16.18,9.08,51.15,51.15,0,0,1,11.07,10.62,40.16,40.16,0,0,1,6.37,12.56,52.19,52.19,0,0,1,2.05,15.11"/><path class="cls-1" d="M771.57,409.69a64.31,64.31,0,0,1-18.29-2.54,58.72,58.72,0,0,1-15.7-7.17,54.38,54.38,0,0,1-12.39-11.19,56.14,56.14,0,0,1-8.47-14.58l-.3-.78,13.23-11.56.64,1.49a50.12,50.12,0,0,0,7.09,11.88,45.07,45.07,0,0,0,9.59,8.91,42.47,42.47,0,0,0,11.63,5.63,44.49,44.49,0,0,0,13.2,2,36.59,36.59,0,0,0,14-2.57A30.55,30.55,0,0,0,802.94,372a34.27,34.27,0,0,0,.85-22.15,26.2,26.2,0,0,0-4.61-8.48,40.56,40.56,0,0,0-8.32-7.64,78.76,78.76,0,0,0-12.59-7l-12.95-6.08a130.1,130.1,0,0,1-14.89-7.87,57.47,57.47,0,0,1-11.8-9.61,41.28,41.28,0,0,1-7.8-12.13A39.87,39.87,0,0,1,728,275.71a43.8,43.8,0,0,1,3.52-17.52,43.06,43.06,0,0,1,9.72-14A44.93,44.93,0,0,1,756,234.82a49.75,49.75,0,0,1,18.35-3.34,62.85,62.85,0,0,1,14.71,1.66,56.81,56.81,0,0,1,12.82,4.78,53.6,53.6,0,0,1,10.75,7.44A52.26,52.26,0,0,1,821.1,255l.53.76-12,13.14-.86-1.14a56.28,56.28,0,0,0-6.73-7.41,42.65,42.65,0,0,0-7.9-5.81,40.08,40.08,0,0,0-9-3.77,37.18,37.18,0,0,0-21.13.43,25.55,25.55,0,0,0-8.56,4.91,21.84,21.84,0,0,0-5.57,7.67,25.36,25.36,0,0,0-2,10.25,26.44,26.44,0,0,0,1.59,9.55,22.05,22.05,0,0,0,5,7.56,43.92,43.92,0,0,0,9,6.78,133.54,133.54,0,0,0,13.33,6.8l12.41,5.64a93.24,93.24,0,0,1,16.38,9.2,52.61,52.61,0,0,1,11.33,10.87,41.43,41.43,0,0,1,6.55,12.93,53.45,53.45,0,0,1,2.1,15.45,50.55,50.55,0,0,1-3.79,19.32,49.76,49.76,0,0,1-10.82,16.28,52.21,52.21,0,0,1-17,11.15A58.06,58.06,0,0,1,771.57,409.69Zm-52.33-35.58A52.73,52.73,0,0,0,727,387.3,51.82,51.82,0,0,0,738.87,398a56.29,56.29,0,0,0,15.07,6.88,62.28,62.28,0,0,0,17.63,2.44A55.88,55.88,0,0,0,793,403.38a49.53,49.53,0,0,0,16.21-10.66,47,47,0,0,0,10.31-15.49,48.08,48.08,0,0,0,3.62-18.42,51.46,51.46,0,0,0-2-14.76,39.14,39.14,0,0,0-6.18-12.2,50,50,0,0,0-10.83-10.36,90.74,90.74,0,0,0-16-9l-12.41-5.64A136.15,136.15,0,0,1,762.2,300a46,46,0,0,1-9.44-7.15,24.68,24.68,0,0,1-5.51-8.37,28.85,28.85,0,0,1-1.74-10.4,27.62,27.62,0,0,1,2.2-11.21,24.12,24.12,0,0,1,6.17-8.48,27.73,27.73,0,0,1,9.34-5.38,39.62,39.62,0,0,1,22.55-.47,42.62,42.62,0,0,1,9.56,4,45.68,45.68,0,0,1,8.34,6.13,59,59,0,0,1,6.14,6.6l8.81-9.65a49.7,49.7,0,0,0-7.57-8.43A50.86,50.86,0,0,0,800.77,240a53.85,53.85,0,0,0-12.28-4.58,60.8,60.8,0,0,0-14.15-1.6A47.36,47.36,0,0,0,756.86,237a42.61,42.61,0,0,0-14,8.83,40.48,40.48,0,0,0-9.19,13.29,41.38,41.38,0,0,0-3.32,16.57A37.27,37.27,0,0,0,733,290.09a38.29,38.29,0,0,0,7.35,11.43,54.4,54.4,0,0,0,11.3,9.2,128.89,128.89,0,0,0,14.64,7.74l13,6.08a80.75,80.75,0,0,1,13,7.25,42.82,42.82,0,0,1,8.8,8.09,28.51,28.51,0,0,1,5,9.24,36.73,36.73,0,0,1-.9,23.75,32.86,32.86,0,0,1-18.41,18.48,38.68,38.68,0,0,1-14.93,2.75A46.5,46.5,0,0,1,757.9,392a44.38,44.38,0,0,1-12.27-5.93,48,48,0,0,1-10.09-9.37,52.38,52.38,0,0,1-6.76-11Z"/><path class="cls-2" d="M973.9,371.16a53.28,53.28,0,0,1-11.8,20.43,50.76,50.76,0,0,1-19.41,12.58,76.61,76.61,0,0,1-26.7,4.3,74,74,0,0,1-26.45-4.41A51.87,51.87,0,0,1,870,391.24a54.63,54.63,0,0,1-12-20.47,85.24,85.24,0,0,1-4.08-27.41V232.69H871.8v107q0,27.23,11.23,40t34.14,12.75a53.81,53.81,0,0,0,19.4-3.14,31.32,31.32,0,0,0,13.34-9.61,42,42,0,0,0,7.77-16.45,96.64,96.64,0,0,0,2.52-23.51v-107h17.68V343.36a89.24,89.24,0,0,1-4,27.8"/><path class="cls-1" d="M916,409.65a75.65,75.65,0,0,1-26.87-4.48,53.36,53.36,0,0,1-20-13.11,56.26,56.26,0,0,1-12.3-20.91,87.1,87.1,0,0,1-4.14-27.79V231.51H873V339.65c0,17.75,3.69,30.93,10.94,39.17s18.41,12.36,33.25,12.36a52.94,52.94,0,0,0,19-3.06A30.24,30.24,0,0,0,949,378.86a41,41,0,0,0,7.55-16A96.19,96.19,0,0,0,959,339.65V231.51h20V343.36a90.85,90.85,0,0,1-4,28.17A54.85,54.85,0,0,1,963,392.4a52.14,52.14,0,0,1-19.86,12.88A78.06,78.06,0,0,1,916,409.65Zm-60.9-175.78V343.36a84.7,84.7,0,0,0,4,27,53.91,53.91,0,0,0,11.78,20A50.85,50.85,0,0,0,890,403a73.26,73.26,0,0,0,26,4.33,75.79,75.79,0,0,0,26.29-4.22,49.75,49.75,0,0,0,19-12.29,52.48,52.48,0,0,0,11.54-20h0a88.51,88.51,0,0,0,3.91-27.43V233.87H961.38V339.65a98.37,98.37,0,0,1-2.55,23.8,43.47,43.47,0,0,1-8,16.9,32.65,32.65,0,0,1-13.84,10,54.92,54.92,0,0,1-19.82,3.23c-15.55,0-27.34-4.43-35-13.16s-11.53-22.4-11.53-40.74V233.87Z"/><path class="cls-2" d="M1092.36,408.38l-55.17-80.18h-4.64v80.18h-18V232.8h32.52q14.89,0,25.76,3.29a48.12,48.12,0,0,1,17.91,9.45,37,37,0,0,1,10.45,15,55.9,55.9,0,0,1,3.43,20.18,50.66,50.66,0,0,1-3.12,18.09A39.24,39.24,0,0,1,1092.3,313a46.32,46.32,0,0,1-15.06,9.67,68,68,0,0,1-20.81,4.6l56.63,81.09Zm-6-126.92a39.15,39.15,0,0,0-2.43-14.37,24.41,24.41,0,0,0-7.77-10.41,36.86,36.86,0,0,0-13.69-6.38,81.7,81.7,0,0,0-20.13-2.16h-9.76v66H1047a56.86,56.86,0,0,0,17-2.28,34.7,34.7,0,0,0,12.3-6.48,26.79,26.79,0,0,0,7.55-10.22,34.83,34.83,0,0,0,2.55-13.66"/><path class="cls-1" d="M1115.33,409.56h-23.59l-.35-.51-54.83-79.67h-2.82v80.18h-20.35V231.61h33.71c10,0,18.81,1.13,26.1,3.35a49.33,49.33,0,0,1,18.35,9.69,38.23,38.23,0,0,1,10.78,15.52,57.41,57.41,0,0,1,3.5,20.6,52,52,0,0,1-3.2,18.52,40.72,40.72,0,0,1-9.5,14.57,47.4,47.4,0,0,1-15.45,9.92,67.51,67.51,0,0,1-19.11,4.51ZM1093,407.19h17.82l-56.53-80.93,2.07-.15a67.34,67.34,0,0,0,20.44-4.51,45.19,45.19,0,0,0,14.69-9.42,38,38,0,0,0,9-13.74,49.54,49.54,0,0,0,3-17.67,55,55,0,0,0-3.34-19.75A36,36,0,0,0,1090,246.43a47.07,47.07,0,0,0-17.49-9.2c-7.07-2.16-15.62-3.25-25.41-3.25h-31.34V407.19h15.61V327h6.44l.35.51Zm-46-91.91h-15.59V247h10.94a82.52,82.52,0,0,1,20.42,2.2,37.89,37.89,0,0,1,14.13,6.59,25.56,25.56,0,0,1,8.14,10.91,40.42,40.42,0,0,1,2.51,14.81,36.21,36.21,0,0,1-2.64,14.11,28.19,28.19,0,0,1-7.87,10.67,36.15,36.15,0,0,1-12.72,6.7A58.6,58.6,0,0,1,1047,315.28Zm-13.22-2.37H1047a56.44,56.44,0,0,0,16.61-2.21,33.9,33.9,0,0,0,11.9-6.26,25.8,25.8,0,0,0,7.22-9.78,33.79,33.79,0,0,0,2.46-13.19,38.13,38.13,0,0,0-2.35-14,23.34,23.34,0,0,0-7.41-9.91,35.49,35.49,0,0,0-13.25-6.16,80.27,80.27,0,0,0-19.83-2.13h-8.57Z"/><path class="cls-3" d="M132.63,249.06c0,48.59,26.58,90.08,69.27,106.75A109.56,109.56,0,0,1,81,246.88L81,97.42h27.43a24.18,24.18,0,0,1,24.19,24.17Z"/><path class="cls-4" d="M309.08,258.17a118,118,0,0,1-235.07-1,121.43,121.43,0,1,0,235.07,1"/><path class="cls-5" d="M410.88,69.17S287.13,75.39,308.24,196.68c14.57,83.75,29.91,143.86-47.23,200.19,25,2.47,125.91-58.82,94.82-173.8-31-114.77,55.05-153.9,55.05-153.9"/><text class="cls-6" transform="translate(65.26 516.84)">Clínica de U<tspan class="cls-7" x="426.61" y="0">r</tspan><tspan x="454.91" y="0">ología </tspan><tspan class="cls-8" x="700.91" y="0">A</tspan><tspan class="cls-9" x="752.27" y="0">v</tspan><tspan x="792.07" y="0">anzada</tspan></text></svg>